<?xml version="1.0" encoding="utf-8"?>
<svg version="1.1" xmlns="http://www.w3.org/2000/svg" xmlns:xlink="http://www.w3.org/1999/xlink" x="0px" y="0px" viewBox="0 0 256 256" enable-background="new 0 0 256 256" xml:space="preserve">
<g><g><path fill="#FFFFFF" d="M128,136.7c-1.2,0-2.5-0.3-3.6-1L31.9,79.2c-2-1.3-3.3-3.5-3.3-5.9s1.3-4.6,3.3-5.9L124.4,11c2.2-1.3,5-1.3,7.2,0L224,67.5c2,1.3,3.3,3.5,3.3,5.9s-1.3,4.6-3.3,5.9l-92.5,56.5C130.5,136.4,129.2,136.7,128,136.7z M48.7,73.4l79.3,48.4l79.3-48.4L128,24.9L48.7,73.4z"/><path fill="#FFFFFF" d="M97.5,159.2c-1.2,0-2.5-0.3-3.6-1l-38.6-23.6c-3.2-2-4.3-6.2-2.3-9.4c2-3.2,6.2-4.2,9.4-2.3l38.6,23.5c3.2,2,4.3,6.2,2.3,9.4C102.1,158.1,99.9,159.2,97.5,159.2z"/><path fill="#FFFFFF" d="M158.8,146.1c-1.2,0-2.3-0.3-3.4-0.9c-2.2-1.2-3.5-3.5-3.5-6l0-24.4L62.8,60.4c-3.2-2-4.3-6.2-2.3-9.4c2-3.2,6.2-4.2,9.4-2.3l92.5,56.5c2,1.3,3.3,3.5,3.3,5.9l0,16l17.1-10.5l0-20.5L93.6,41.6c-3.2-2-4.3-6.2-2.3-9.4c2-3.2,6.2-4.2,9.4-2.3l92.5,56.5c2,1.3,3.3,3.5,3.3,5.9l0,28.2c0,2.4-1.3,4.6-3.3,5.9l-30.8,18.9C161.2,145.8,160,146.1,158.8,146.1z"/><path fill="#FFFFFF" d="M128,246c-1.2,0-2.5-0.3-3.6-1l-92.5-56.5c-2-1.3-3.3-3.5-3.3-5.9V73.4c0-3.8,3.1-6.9,6.9-6.9c3.8,0,6.9,3.1,6.9,6.9v105.4l85.6,52.3l85.6-52.3V73.4c0-3.8,3.1-6.9,6.9-6.9s6.9,3.1,6.9,6.9v109.3c0,2.4-1.3,4.6-3.3,5.9L131.6,245C130.5,245.7,129.2,246,128,246z"/><path fill="#FFFFFF" d="M128,246c-3.8,0-6.9-3.1-6.9-6.9V129.8c0-3.8,3.1-6.9,6.9-6.9s6.9,3.1,6.9,6.9v109.3C134.9,242.9,131.8,246,128,246z"/></g></g>
</svg>